<mxfile host="app.diagrams.net" modified="2023-12-05T12:36:45.146Z" agent="Mozilla/5.0 (X11; Linux x86_64) AppleWebKit/537.36 (KHTML, like Gecko) Chrome/119.0.0.0 Safari/537.36" version="22.1.5" etag="4Vl4mTlC8UJBOeV3dtvI" type="github">
  <diagram name="Page-1" id="nHdtAUuiSNqxZX56wE2M">
    <mxGraphModel>
      <root>
        <mxCell id="0" />
        <mxCell id="1" parent="0" />
      </root>
    </mxGraphModel>
  </diagram>
</mxfile>
